<svg xmlns="http://www.w3.org/2000/svg" viewBox="0 0 32 32" fill="none">
  <!-- Left brace: brand purple -->
  <path d="M10 5 C6 5 5 7 5 10 L5 14 C5 15.5 3 16 3 16 C3 16 5 16.5 5 18 L5 22 C5 25 6 27 10 27"
        stroke="#7878F8" stroke-width="2" stroke-linecap="round" stroke-linejoin="round" fill="none"/>
  <!-- Equals sign -->
  <line x1="12" y1="13" x2="20" y2="13" stroke="#7878F8" stroke-width="2.2" stroke-linecap="round"/>
  <line x1="12" y1="19" x2="20" y2="19" stroke="#7878F8" stroke-width="2.2" stroke-linecap="round"/>
  <!-- Right brace: dark -->
  <path d="M22 5 C26 5 27 7 27 10 L27 14 C27 15.5 29 16 29 16 C29 16 27 16.5 27 18 L27 22 C27 25 26 27 22 27"
        stroke="#1A1A2E" stroke-width="2" stroke-linecap="round" stroke-linejoin="round" fill="none"/>
</svg>

