<svg xmlns="http://www.w3.org/2000/svg" viewBox="0 0 300 80" fill="none">
  <!-- Left brace: brand purple -->
  <path d="M23 10 C15 10 11 16 11 23 L11 31 C11 35 7 37 7 37 C7 37 11 39 11 43 L11 51 C11 58 15 64 23 64"
        stroke="#7878F8" stroke-width="5" stroke-linecap="round" stroke-linejoin="round" fill="none"/>
  <!-- Equals sign -->
  <line x1="28" y1="30" x2="48" y2="30" stroke="#7878F8" stroke-width="5.5" stroke-linecap="round"/>
  <line x1="28" y1="44" x2="48" y2="44" stroke="#7878F8" stroke-width="5.5" stroke-linecap="round"/>
  <!-- Right brace: white (for dark backgrounds) -->
  <path d="M53 10 C61 10 65 16 65 23 L65 31 C65 35 69 37 69 37 C69 37 65 39 65 43 L65 51 C65 58 61 64 53 64"
        stroke="#FFFFFF" stroke-width="5" stroke-linecap="round" stroke-linejoin="round" fill="none"/>
  <!-- Wordmark -->
  <text x="84" y="53" font-family="Inter, -apple-system, BlinkMacSystemFont, sans-serif" font-size="38" font-weight="700" fill="#FFFFFF" letter-spacing="-0.5">schemory</text>
</svg>
