<svg xmlns="http://www.w3.org/2000/svg" viewBox="0 0 100 100" fill="none">
  <rect width="100" height="100" rx="20" fill="#1A1A2E"/>
  <!-- Left brace: brand purple -->
  <path d="M32 20 C20 20 16 28 16 36 L16 44 C16 48 11 50 11 50 C11 50 16 52 16 56 L16 64 C16 72 20 80 32 80"
        stroke="#7878F8" stroke-width="6.5" stroke-linecap="round" stroke-linejoin="round" fill="none"/>
  <!-- Equals sign -->
  <line x1="37" y1="42" x2="63" y2="42" stroke="#7878F8" stroke-width="7" stroke-linecap="round"/>
  <line x1="37" y1="58" x2="63" y2="58" stroke="#7878F8" stroke-width="7" stroke-linecap="round"/>
  <!-- Right brace: white -->
  <path d="M68 20 C80 20 84 28 84 36 L84 44 C84 48 89 50 89 50 C89 50 84 52 84 56 L84 64 C84 72 80 80 68 80"
        stroke="#FFFFFF" stroke-width="6.5" stroke-linecap="round" stroke-linejoin="round" fill="none"/>
</svg>

